<?xml version="1.0" encoding="UTF-8"?>
<svg version="1.1" viewBox="0 0 100 100" xmlns="http://www.w3.org/2000/svg">
 <rect id="bg" transform="matrix(.48627 0 0 .38902 41.288 43.939)" x="-84.908" y="-112.95" width="205.65" height="257.06" stroke-linecap="round" stroke-linejoin="round" stroke-width="3.2"/>
 <g id="hero" stroke-linecap="round" stroke-linejoin="round" stroke-width="3.2">
  <path id="hero-blue" transform="matrix(.6277 0 0 .6277 -25.079 -29.358)" d="m109 83.199s-13.6-0.29961-28 10.4c0 0-14.4 25.901-14.4 57.801 0 0 8.4 14.4 30.5 15.1 0 0 3.7012-4.3992 6.7012-8.1992-12.7-3.8-17.5-11.701-17.5-11.701s0.99883 0.70117 2.7988 1.7012c0.1 0 0.20039 0.0992 0.40039 0.19922 0.3 0.2 0.60039 0.3 0.90039 0.5 2.5 1.4 4.9988 2.5004 7.2988 3.4004 4.1 1.7 9.0012 3.1988 14.701 4.2988 7.5 1.4 16.3 1.9016 25.9 0.10156 4.7-0.9 9.5-2.2008 14.5-4.3008 3.5-1.3 7.4-3.2004 11.5-5.9004 0 0-5.0016 8.1008-18.102 11.801 3 3.7 6.6016 8 6.6016 8 22.1-0.7 30.5-15.1 30.5-15 0-31.9-14.4-57.801-14.4-57.801-14.3-10.7-28-10.4-28-10.4l-1.4004 1.6016c17 5.1 24.9 12.6 24.9 12.6-10.4-5.6-20.6-8.4-30.1-9.5-7.2-0.8-14.101-0.60078-20.201 0.19922-0.6 0-1.0992 0.10117-1.6992 0.20117-3.5 0.4-12.001 1.5988-22.701 6.2988-3.7 1.6-5.8984 2.8008-5.8984 2.8008s8.1992-7.9 26.199-13zm-2.6992 36.9c5.7 0 10.299 4.9 10.199 11 0 6.1-4.4992 11-10.199 11-5.6 0-10.201-4.9-10.201-11s4.5012-11 10.201-11zm36.5 0c5.6 0 10.199 4.9 10.199 11s-4.4992 11-10.199 11c-5.6 0-10.201-4.9-10.201-11s4.5012-11 10.201-11z" fill="#0350bd"/>
  <path id="hero-red" transform="matrix(.6277 0 0 .6277 -26.279 -29.358)" d="m109 83.199s-13.6-0.29961-28 10.4c0 0-14.4 25.901-14.4 57.801 0 0 8.4 14.4 30.5 15.1 0 0 3.7012-4.3992 6.7012-8.1992-12.7-3.8-17.5-11.701-17.5-11.701s0.99883 0.70117 2.7988 1.7012c0.1 0 0.20039 0.0992 0.40039 0.19922 0.3 0.2 0.60039 0.3 0.90039 0.5 2.5 1.4 4.9988 2.5004 7.2988 3.4004 4.1 1.7 9.0012 3.1988 14.701 4.2988 7.5 1.4 16.3 1.9016 25.9 0.10156 4.7-0.9 9.5-2.2008 14.5-4.3008 3.5-1.3 7.4-3.2004 11.5-5.9004 0 0-5.0016 8.1008-18.102 11.801 3 3.7 6.6016 8 6.6016 8 22.1-0.7 30.5-15.1 30.5-15 0-31.9-14.4-57.801-14.4-57.801-14.3-10.7-28-10.4-28-10.4l-1.4004 1.6016c17 5.1 24.9 12.6 24.9 12.6-10.4-5.6-20.6-8.4-30.1-9.5-7.2-0.8-14.101-0.60078-20.201 0.19922-0.6 0-1.0992 0.10117-1.6992 0.20117-3.5 0.4-12.001 1.5988-22.701 6.2988-3.7 1.6-5.8984 2.8008-5.8984 2.8008s8.1992-7.9 26.199-13zm-2.6992 36.9c5.7 0 10.299 4.9 10.199 11 0 6.1-4.4992 11-10.199 11-5.6 0-10.201-4.9-10.201-11s4.5012-11 10.201-11zm36.5 0c5.6 0 10.199 4.9 10.199 11s-4.4992 11-10.199 11c-5.6 0-10.201-4.9-10.201-11s4.5012-11 10.201-11z" fill="#f3070b"/>
  <path id="hero-green" transform="matrix(.6277 0 0 .6277 -29.479 -29.358)" d="m109 83.199s-13.6-0.29961-28 10.4c0 0-14.4 25.901-14.4 57.801 0 0 8.4 14.4 30.5 15.1 0 0 3.7012-4.3992 6.7012-8.1992-12.7-3.8-17.5-11.701-17.5-11.701s0.99883 0.70117 2.7988 1.7012c0.1 0 0.20039 0.0992 0.40039 0.19922 0.3 0.2 0.60039 0.3 0.90039 0.5 2.5 1.4 4.9988 2.5004 7.2988 3.4004 4.1 1.7 9.0012 3.1988 14.701 4.2988 7.5 1.4 16.3 1.9016 25.9 0.10156 4.7-0.9 9.5-2.2008 14.5-4.3008 3.5-1.3 7.4-3.2004 11.5-5.9004 0 0-5.0016 8.1008-18.102 11.801 3 3.7 6.6016 8 6.6016 8 22.1-0.7 30.5-15.1 30.5-15 0-31.9-14.4-57.801-14.4-57.801-14.3-10.7-28-10.4-28-10.4l-1.4004 1.6016c17 5.1 24.9 12.6 24.9 12.6-10.4-5.6-20.6-8.4-30.1-9.5-7.2-0.8-14.101-0.60078-20.201 0.19922-0.6 0-1.0992 0.10117-1.6992 0.20117-3.5 0.4-12.001 1.5988-22.701 6.2988-3.7 1.6-5.8984 2.8008-5.8984 2.8008s8.1992-7.9 26.199-13zm-2.6992 36.9c5.7 0 10.299 4.9 10.199 11 0 6.1-4.4992 11-10.199 11-5.6 0-10.201-4.9-10.201-11s4.5012-11 10.201-11zm36.5 0c5.6 0 10.199 4.9 10.199 11s-4.4992 11-10.199 11c-5.6 0-10.201-4.9-10.201-11s4.5012-11 10.201-11z" fill="#62f765"/>
  <path id="hero-white" transform="matrix(.6277 0 0 .6277 -28.179 -29.358)" d="m109 83.199s-13.6-0.29961-28 10.4c0 0-14.4 25.901-14.4 57.801 0 0 8.4 14.4 30.5 15.1 0 0 3.7012-4.3992 6.7012-8.1992-12.7-3.8-17.5-11.701-17.5-11.701s0.99883 0.70117 2.7988 1.7012c0.1 0 0.20039 0.0992 0.40039 0.19922 0.3 0.2 0.60039 0.3 0.90039 0.5 2.5 1.4 4.9988 2.5004 7.2988 3.4004 4.1 1.7 9.0012 3.1988 14.701 4.2988 7.5 1.4 16.3 1.9016 25.9 0.10156 4.7-0.9 9.5-2.2008 14.5-4.3008 3.5-1.3 7.4-3.2004 11.5-5.9004 0 0-5.0016 8.1008-18.102 11.801 3 3.7 6.6016 8 6.6016 8 22.1-0.7 30.5-15.1 30.5-15 0-31.9-14.4-57.801-14.4-57.801-14.3-10.7-28-10.4-28-10.4l-1.4004 1.6016c17 5.1 24.9 12.6 24.9 12.6-10.4-5.6-20.6-8.4-30.1-9.5-7.2-0.8-14.101-0.60078-20.201 0.19922-0.6 0-1.0992 0.10117-1.6992 0.20117-3.5 0.4-12.001 1.5988-22.701 6.2988-3.7 1.6-5.8984 2.8008-5.8984 2.8008s8.1992-7.9 26.199-13zm-2.6992 36.9c5.7 0 10.299 4.9 10.199 11 0 6.1-4.4992 11-10.199 11-5.6 0-10.201-4.9-10.201-11s4.5012-11 10.201-11zm36.5 0c5.6 0 10.199 4.9 10.199 11s-4.4992 11-10.199 11c-5.6 0-10.201-4.9-10.201-11s4.5012-11 10.201-11z" fill="#fff"/>
 </g>
</svg>
